<svg width="323" height="287" viewBox="0 0 323 287" fill="none" xmlns="http://www.w3.org/2000/svg">
<path d="M26.3476 198.357L40.3142 164.805L37.9062 177.808L1.30399 85.5001H26.6687L49.7858 146.825H50.428L72.4214 85.5001H97.6255L52.1939 203.173L26.3476 198.357ZM153.108 173.795C143.048 173.795 134.433 172.243 127.262 169.139C120.091 165.929 114.526 161.38 110.566 155.494C106.713 149.5 104.787 142.383 104.787 134.142V123.547C104.787 115.306 106.713 108.243 110.566 102.356C114.526 96.47 120.091 91.9215 127.262 88.7108C134.54 85.5001 143.155 83.8947 153.108 83.8947C163.061 83.8947 171.623 85.5001 178.794 88.7108C186.072 91.8145 191.637 96.363 195.49 102.356C199.45 108.243 201.43 115.306 201.43 123.547V134.142C201.43 142.383 199.45 149.5 195.49 155.494C191.637 161.38 186.072 165.929 178.794 169.139C171.623 172.243 163.061 173.795 153.108 173.795ZM153.108 154.852C160.065 154.852 165.63 152.979 169.804 149.233C173.978 145.38 176.065 140.189 176.065 133.661V124.029C176.065 117.5 173.978 112.363 169.804 108.617C165.63 104.764 160.065 102.838 153.108 102.838C146.152 102.838 140.586 104.764 136.413 108.617C132.239 112.363 130.152 117.5 130.152 124.029V133.661C130.152 140.082 132.239 145.219 136.413 149.072C140.586 152.925 146.152 154.852 153.108 154.852ZM244.947 132.377C244.947 140.082 246.339 145.701 249.121 149.233C252.011 152.765 256.559 154.531 262.767 154.531C270.365 154.531 276.145 151.908 280.105 146.664C284.172 141.42 286.205 133.821 286.205 123.868L295.195 110.865V121.942C295.195 138.637 291.663 151.48 284.6 160.47C277.643 169.353 267.529 173.795 254.258 173.795C242.379 173.795 233.656 170.745 228.091 164.644C222.526 158.544 219.743 148.965 219.743 135.908V85.5001H244.947V132.377ZM311.57 172.189H291.663L286.205 146.183V85.5001H311.57V172.189Z" fill="white"/>
<path d="M83.3324 241.316C83.3324 237.519 82.6205 234.75 81.1967 233.01C79.8256 231.217 77.6371 230.321 74.6312 230.321C71.0452 230.321 68.3294 231.613 66.4837 234.197C64.638 236.781 63.7151 240.551 63.7151 245.508L59.1272 251.915V246.457C59.1272 238.178 60.8938 231.85 64.427 227.473C67.9602 223.096 73.0228 220.907 79.6146 220.907C85.1518 220.907 89.2387 222.41 91.8754 225.416C94.5122 228.422 95.8305 233.142 95.8305 239.576V264.414H83.3324V241.316ZM19.1016 221.698H28.9102L31.5206 234.829V264.414H19.1016V221.698ZM51.217 241.316C51.217 237.519 50.5051 234.75 49.0812 233.01C47.7101 231.217 45.5216 230.321 42.5158 230.321C38.9298 230.321 36.1876 231.613 34.2891 234.197C32.4434 236.781 31.5206 240.551 31.5206 245.508L27.0909 251.915V246.457C27.0909 238.178 28.8311 231.85 32.3116 227.473C35.7921 223.096 40.8282 220.907 47.4201 220.907C53.01 220.907 57.1233 222.41 59.76 225.416C62.3967 228.422 63.7151 233.142 63.7151 239.576V264.414H51.217V241.316ZM133.84 249.068V238.705C133.84 235.647 132.917 233.406 131.072 231.982C129.226 230.558 126.273 229.846 122.212 229.846C119.734 229.846 117.229 230.189 114.698 230.874C112.166 231.507 109.767 232.43 107.499 233.643L105.838 225.179C107.526 224.335 109.477 223.597 111.692 222.964C113.907 222.331 116.201 221.83 118.574 221.461C120.999 221.092 123.293 220.907 125.455 220.907C132.575 220.907 137.901 222.384 141.434 225.337C144.967 228.29 146.734 232.746 146.734 238.705V264.414H136.846L133.84 249.068ZM120.472 265.205C115.462 265.205 111.534 264.124 108.686 261.961C105.891 259.747 104.493 256.714 104.493 252.865V251.283C104.493 247.328 105.917 244.269 108.765 242.107C111.613 239.945 115.62 238.864 120.788 238.864C126.273 238.864 130.571 239.918 133.682 242.028C136.793 244.137 138.349 247.143 138.349 251.045V252.706C138.349 256.609 136.767 259.667 133.603 261.882C130.492 264.097 126.115 265.205 120.472 265.205ZM124.032 258.718C126.985 258.718 129.305 258.138 130.993 256.978C132.68 255.765 133.524 254.157 133.524 252.153V251.283C133.524 249.384 132.707 247.908 131.072 246.853C129.49 245.745 127.248 245.192 124.348 245.192C121.659 245.192 119.576 245.693 118.099 246.695C116.675 247.697 115.963 249.305 115.963 251.52V252.311C115.963 254.368 116.675 255.95 118.099 257.057C119.523 258.165 121.5 258.718 124.032 258.718ZM172.808 265.205C168.273 265.205 164.95 264.071 162.841 261.803C160.732 259.536 159.677 256.002 159.677 251.204V223.439L163.237 211.573H172.175V248.91C172.175 251.388 172.623 253.155 173.52 254.209C174.469 255.264 176.077 255.791 178.345 255.791C179.136 255.791 179.98 255.712 180.876 255.554C181.773 255.396 182.643 255.159 183.487 254.842L184.99 262.752C183.882 263.227 182.643 263.649 181.272 264.018C179.953 264.387 178.556 264.677 177.079 264.888C175.656 265.099 174.232 265.205 172.808 265.205ZM152.479 221.698H183.012V230.4H152.479V221.698ZM207.879 265.205C203.343 265.205 200.021 264.071 197.912 261.803C195.802 259.536 194.748 256.002 194.748 251.204V223.439L198.307 211.573H207.246V248.91C207.246 251.388 207.694 253.155 208.59 254.209C209.54 255.264 211.148 255.791 213.416 255.791C214.207 255.791 215.05 255.712 215.947 255.554C216.843 255.396 217.714 255.159 218.557 254.842L220.06 262.752C218.953 263.227 217.714 263.649 216.342 264.018C215.024 264.387 213.627 264.677 212.15 264.888C210.726 265.099 209.302 265.205 207.879 265.205ZM187.549 221.698H218.083V230.4H187.549V221.698ZM246.154 265.205C241.513 265.205 237.532 264.44 234.21 262.911C230.887 261.381 228.356 259.166 226.616 256.266C224.876 253.313 224.006 249.78 224.006 245.666V240.446C224.006 236.385 224.928 232.905 226.774 230.004C228.62 227.051 231.283 224.81 234.763 223.281C238.244 221.698 242.384 220.907 247.182 220.907C254.513 220.907 260.155 222.78 264.11 226.524C268.065 230.268 270.043 235.62 270.043 242.581V246.141H234.21V239.971H260.234L258.494 242.344V239.813C258.494 236.649 257.492 234.17 255.488 232.377C253.537 230.532 250.874 229.609 247.499 229.609C244.071 229.609 241.382 230.532 239.43 232.377C237.479 234.223 236.504 236.781 236.504 240.05V247.09C236.504 250.307 237.453 252.812 239.351 254.605C241.25 256.345 243.86 257.215 247.182 257.215C250.083 257.215 252.43 256.635 254.222 255.475C256.068 254.315 257.228 252.706 257.703 250.65L269.489 251.441C268.276 255.871 265.64 259.272 261.579 261.645C257.518 264.018 252.377 265.205 246.154 265.205ZM279.119 221.698H288.927L291.538 238.231V264.414H279.119V221.698ZM288.611 242.502C288.611 235.383 289.877 230.004 292.408 226.365C294.939 222.727 298.657 220.907 303.561 220.907C304.405 220.907 305.275 220.96 306.172 221.066C307.121 221.171 308.044 221.356 308.94 221.619L308.228 232.14C306.541 231.718 304.748 231.507 302.849 231.507C299.105 231.507 296.284 232.694 294.385 235.067C292.487 237.387 291.538 240.947 291.538 245.745L288.611 242.502Z" fill="white"/>
</svg>
